<svg xmlns="http://www.w3.org/2000/svg" viewBox="0 0 1200 960" role="img" aria-labelledby="title desc">
  <title id="title">Freshly maintained lawn</title>
  <desc id="desc">A freshly cut lawn with clean mowing stripes, edged landscaping, mulch beds, and lawn care tools.</desc>
  <defs>
    <linearGradient id="sky" x1="0" x2="0" y1="0" y2="1">
      <stop offset="0" stop-color="#f6fbf0"/>
      <stop offset=".72" stop-color="#e1eed9"/>
      <stop offset="1" stop-color="#d0dcc7"/>
    </linearGradient>
    <filter id="shadow" x="-20%" y="-20%" width="140%" height="140%">
      <feDropShadow dx="0" dy="18" stdDeviation="22" flood-color="#17231c" flood-opacity=".18"/>
    </filter>
  </defs>
  <rect width="1200" height="960" fill="url(#sky)"/>
  <circle cx="988" cy="152" r="76" fill="#d0a43c" opacity=".8"/>
  <path d="M0 450c130-54 278-71 444-50 154 20 301 16 441-11 132-25 237-65 315-120v691H0Z" fill="#1f6b45"/>
  <path d="M0 512c126-41 276-50 451-27 180 24 348 14 506-29 99-27 180-60 243-99v603H0Z" fill="#2d7d4f"/>
  <path d="M-80 960 385 422h98L108 960Z" fill="#3b8e5c"/>
  <path d="M200 960 593 404h96L454 960Z" fill="#3b8e5c"/>
  <path d="M512 960 790 391h96L760 960Z" fill="#3b8e5c"/>
  <path d="M822 960 968 348h98l10 612Z" fill="#3b8e5c"/>
  <path d="M0 660c160 46 346 61 558 45 245-18 459-75 642-170v425H0Z" fill="#113c29" opacity=".16"/>
  <path d="M124 596c118 33 278 34 480 5 198-28 356-75 474-141" fill="none" stroke="#e8f3de" stroke-width="10" stroke-linecap="round" opacity=".45"/>
  <path d="M76 732c149 33 325 38 528 17 223-23 399-75 528-156" fill="none" stroke="#e8f3de" stroke-width="10" stroke-linecap="round" opacity=".4"/>
  <rect x="66" y="566" width="300" height="122" rx="34" fill="#7a472b" filter="url(#shadow)"/>
  <path d="M92 594c74 21 150 22 227 2" fill="none" stroke="#9c6140" stroke-width="22" stroke-linecap="round"/>
  <circle cx="118" cy="548" r="34" fill="#d8e9bf"/>
  <circle cx="178" cy="526" r="48" fill="#bcd993"/>
  <circle cx="250" cy="542" r="42" fill="#d8e9bf"/>
  <circle cx="326" cy="538" r="36" fill="#bcd993"/>
  <path d="M918 690h116c46 0 84 37 84 84v12H822v-12c0-46 37-84 84-84Z" fill="#17231c" filter="url(#shadow)"/>
  <rect x="874" y="640" width="170" height="92" rx="22" fill="#b95f34"/>
  <rect x="1004" y="600" width="64" height="90" rx="16" fill="#d0a43c"/>
  <circle cx="904" cy="806" r="48" fill="#17231c"/>
  <circle cx="904" cy="806" r="20" fill="#d9e0d1"/>
  <circle cx="1052" cy="806" r="48" fill="#17231c"/>
  <circle cx="1052" cy="806" r="20" fill="#d9e0d1"/>
  <path d="M814 622c-116-96-218-146-306-150" fill="none" stroke="#17231c" stroke-width="18" stroke-linecap="round"/>
  <rect x="468" y="444" width="76" height="46" rx="12" fill="#d0a43c" transform="rotate(12 468 444)"/>
  <path d="M194 312c38-56 86-85 144-88 73-4 130 32 172 108 43-38 93-53 150-45 58 8 103 42 136 101" fill="none" stroke="#1f6b45" stroke-width="18" stroke-linecap="round" opacity=".35"/>
  <rect x="154" y="168" width="260" height="112" rx="18" fill="#fffdf7" opacity=".94" filter="url(#shadow)"/>
  <text x="190" y="238" fill="#1f6b45" font-family="Arial, sans-serif" font-size="56" font-weight="800">BS</text>
  <text x="282" y="238" fill="#17231c" font-family="Arial, sans-serif" font-size="36" font-weight="800">Lawn Co</text>
</svg>
